<?xml version="1.0" encoding="utf-8"?>
<!-- Generator: Adobe Illustrator 19.1.0, SVG Export Plug-In . SVG Version: 6.00 Build 0)  -->
<svg version="1.1" id="Layer_4" xmlns="http://www.w3.org/2000/svg" xmlns:xlink="http://www.w3.org/1999/xlink" x="0px" y="0px"
	 viewBox="0 0 410 232.7" style="enable-background:new 0 0 410 232.7;" xml:space="preserve">
<style type="text/css">
	.st0{display:none;fill:none;stroke:#801C18;stroke-width:12;stroke-linecap:round;stroke-miterlimit:10;}
	.st1{display:none;fill:none;stroke:#FDC045;stroke-width:12;stroke-linecap:round;stroke-miterlimit:10;}
	.st2{display:none;fill:none;stroke:#61547E;stroke-width:12;stroke-linecap:round;stroke-miterlimit:10;}
	.st3{display:none;fill:none;stroke:#C1A8B6;stroke-width:12;stroke-linecap:round;stroke-miterlimit:10;}
	.st4{display:none;fill:none;stroke:#F2733E;stroke-width:12;stroke-linecap:round;stroke-miterlimit:10;}
	.st5{display:none;}
	.st6{display:inline;fill:none;stroke:#F2733E;stroke-width:15;stroke-linecap:round;stroke-miterlimit:10;}
	.st7{display:inline;fill:none;stroke:#61547E;stroke-width:15;stroke-linecap:round;stroke-miterlimit:10;}
	.st8{display:inline;fill:none;stroke:#801C18;stroke-width:15;stroke-linecap:round;stroke-miterlimit:10;}
	.st9{display:inline;fill:none;stroke:#C1A8B6;stroke-width:15;stroke-linecap:round;stroke-miterlimit:10;}
	.st10{display:inline;fill:none;stroke:#FDC045;stroke-width:15;stroke-linecap:round;stroke-miterlimit:10;}
	.st11{display:none;fill:none;stroke:#C1A8B6;stroke-width:15;stroke-linecap:round;stroke-miterlimit:10;}
	.st12{fill:none;stroke:#000000;stroke-width:15;stroke-linecap:round;stroke-miterlimit:10;}
	.st13{fill:none;stroke:#00b0ea;stroke-width:15;stroke-linecap:round;stroke-miterlimit:10;}
	.st14{fill:#00b0ea;}
	.st15{display:inline;fill:none;stroke:#FFFFFF;stroke-width:15;stroke-miterlimit:10;}
	.st16{display:inline;fill:none;stroke:#FFFFFF;stroke-width:15;stroke-linecap:round;stroke-miterlimit:10;}
	.st17{display:inline;}
	.st18{fill:#F3733D;}
	.st19{fill:#FFFFFF;}
	.st20{fill:#FDC045;}
	.st21{font-family:'Gotham-Book';}
	.st22{font-size:34px;}
	.st23{letter-spacing:1;}
	.st24{stroke:#000000;stroke-miterlimit:10;}
</style>
<path class="st0" d="M214-14.6c-8,12-21.6,19.9-37.1,19.9c-6.4,0-12.5-1.4-18.1-3.8"/>
<path class="st1" d="M209.7,20.5c-9.7,5.3-20.9,8.3-32.8,8.3c-15.4,0-29.7-5.1-41.1-13.7"/>
<path class="st2" d="M267.7-21.7c-8.4,42.5-45.8,74.5-90.7,74.5"/>
<path class="st2" d="M176.9-132.1c21.2,0,40.8,7.2,56.4,19.2"/>
<path class="st3" d="M200.5-76.9c12.5,7.9,20.9,21.8,20.9,37.7c0,9.1-2.7,17.6-7.4,24.6"/>
<path class="st4" d="M233.7-77.9c7.4,10.9,11.7,24.1,11.7,38.3c0,26-14.4,48.5-35.7,60.2"/>
<path class="st3" d="M233.3-112.9c18.2,14,31.1,34.7,34.9,58.4"/>
<path class="st4" d="M135.8-94.5c11.4-8.6,25.7-13.7,41.1-13.7c23.6,0,44.5,12,56.8,30.2"/>
<g class="st5">
	<path class="st6" d="M63.1,342.5c7.6,10.6,11.9,23.7,11.9,37.8v0.4c0,29.6-19.3,54.9-47.9,62.8"/>
</g>
<g class="st5">
	<path class="st7" d="M103.3,398.6c-8.2,43.5-46,76.7-95.8,76.7 M8,286.1c26.8,0,50,9.5,66.9,25"/>
</g>
<g class="st5">
	<path class="st8" d="M36.4,404.2c-6.7,7.8-16.8,12.7-28.7,12.7c-10,0-18.8-3.5-25.2-9.2"/>
</g>
<g class="st5">
	<path class="st9" d="M27,349.4c11,6.2,17.9,17.8,17.9,31.1v0.2c0,8.9-3.2,17.1-8.6,23.5"/>
</g>
<g class="st5">
	<path class="st6" d="M-40.4,334.5c12-11.9,28.8-19.2,48.3-19.2c23.7,0,43.4,10.7,55.1,27.3"/>
</g>
<g class="st5">
	<path class="st10" d="M27,443.5c-6.1,1.7-12.6,2.6-19.4,2.6c-18.9,0-35.3-6.8-47.1-18"/>
</g>
<path class="st11" d="M75,311.1c15.2,13.9,25.5,32.7,28.8,53.9"/>
<g>
	<path d="M25.6,134.6v-0.2c0-11.7,8.9-17.1,21.6-17.1c5.4,0,9.3,0.9,13.1,2.2v-0.9c0-6.3-3.9-9.8-11.5-9.8c-5.8,0-9.9,1.1-14.8,2.9
		l-3.8-11.6c5.9-2.6,11.7-4.3,20.8-4.3c8.3,0,14.3,2.2,18.1,6c4,4,5.8,9.9,5.8,17.1V150H60.2v-5.8c-3.7,4.1-8.8,6.8-16.2,6.8
		C33.9,151,25.6,145.2,25.6,134.6z M60.5,131.1v-2.7c-2.6-1.2-6-2-9.7-2c-6.5,0-10.5,2.6-10.5,7.4v0.2c0,4.1,3.4,6.5,8.3,6.5
		C55.7,140.5,60.5,136.6,60.5,131.1z"/>
	<path d="M83,96.4h15.2v7.6c3.5-4.5,8.1-8.6,15.8-8.6c7,0,12.3,3.1,15.1,8.5c4.7-5.5,10.3-8.5,17.6-8.5c11.3,0,18.1,6.8,18.1,19.7
		V150h-15.2v-29.9c0-7.2-3.2-10.9-8.9-10.9s-9.2,3.7-9.2,10.9V150h-15.2v-29.9c0-7.2-3.2-10.9-8.9-10.9c-5.7,0-9.2,3.7-9.2,10.9V150
		H83V96.4z"/>
	<path d="M173,96.4h15.2v7.7c3.7-5,8.8-8.7,16.7-8.7c12.5,0,24.4,9.8,24.4,27.7v0.2c0,17.9-11.7,27.7-24.4,27.7
		c-8.1,0-13.1-3.7-16.7-8v23H173V96.4z M214.1,123.3v-0.2c0-8.9-6-14.8-13.1-14.8c-7.1,0-13,5.9-13,14.8v0.2c0,8.9,5.9,14.8,13,14.8
		C208.1,138.1,214.1,132.3,214.1,123.3z"/>
	<path d="M236.2,96.4h15.2V150h-15.2V96.4z"/>
</g>
<path class="st12" d="M383.3,136.4c-9,38.2-43.1,66.9-87.6,66.9"/>
<path class="st12" d="M317.3,136.4c-5.3,5.2-12.7,8.5-21.4,8.5c-7.9,0-14.8-2.7-19.9-7.1"/>
<path class="st12" d="M325.7,115.9 M276,137.7c-5.2-4.5-8.6-10.7-9.5-17.8c-0.2-1.3-0.2-2.5-0.2-3.9v-0.2C266.2,100,278.8,87,296,87
	c4.9,0,9.3,1,13.2,2.8"/>
<path class="st12" d="M309.3,89.8c2.4,1.1,4.6,2.5,6.5,4.2c3,2.5,5.4,5.7,7.1,9.2c1.8,3.8,2.8,8.1,2.8,12.6v0.2
	c0,8-3.1,15.2-8.4,20.4"/>
<path class="st13" d="M263.8,66.6c9.2-5.6,20.2-8.8,32.3-8.8c16.2,0,30.2,5.6,40.6,14.9"/>
<path class="st13" d="M353.7,100.3c1.3,4.9,2,10,2,15.4v0.3c0,28.5-20.1,52.4-49.1,57.2"/>
<path class="st13" d="M358.1,51.7c11.7,10.7,20.1,24.4,24.4,40"/>
<path class="st12" d="M296.2,28.6c12.6,0,24.4,2.3,35,6.4c1.7,0.7,3.4,1.4,5.1,2.2"/>
<g>
	<circle class="st14" cx="244.5" cy="82" r="8.8"/>
</g>
<g>
	<circle cx="282.2" cy="173.1" r="8.8"/>
</g>
<g class="st5">
	<path class="st15" d="M82.3-70.2l0-0.6c0-64.1,50.5-116.5,120.1-116.5c69.5,0,119.4,51.8,119.4,115.9l0,0.6
		c0,64.1-50.5,116.5-120.1,116.5C132.2,45.7,82.3-6.2,82.3-70.2z"/>
	<path class="st16" d="M212.7-13.6c-3.5,0.6-7.1,0.9-10.8,0.9c-12.3,0-23.4-3.3-32.6-8.9"/>
	<path class="st8" d="M289.4-50.4c-9,38.2-43.1,66.9-87.6,66.9"/>
	<path class="st7" d="M182-49.1c-6.1-5.3-9.8-13-9.8-21.6v-0.2c0-15.9,12.5-28.9,29.8-28.9c4.9,0,9.3,1,13.2,2.8 M231.7-70.9"/>
	<path class="st9" d="M223.3-50.4c-5.3,5.2-12.7,8.5-21.4,8.5c-7.9,0-14.8-2.7-19.9-7.1"/>
	<path class="st6" d="M215.3-97c2.4,1.1,4.6,2.5,6.5,4.2c6.2,5.3,9.9,13.1,9.9,21.8v0.2c0,8-3.1,15.2-8.4,20.4"/>
	<path class="st6" d="M169.8-120.2c9.2-5.6,20.2-8.8,32.3-8.8c23.4,0,42.3,11.7,52.2,29.2"/>
	<path class="st10" d="M254.3-99.8c4.8,8.4,7.4,18.2,7.4,28.6l0,0.3c0,28.5-20.1,52.4-49.1,57.2"/>
	<path class="st9" d="M253.5-143.4C270.6-132,283-115,288.5-95.1"/>
	<path class="st7" d="M202.2-158.2c19.5,0,37,5.5,51.2,14.8"/>
	<g class="st17">
		<path class="st18" d="M150.5-92.8c-6,0-11-4.9-11-11s4.9-11,11-11s11,4.9,11,11S156.5-92.8,150.5-92.8z"/>
		<path class="st19" d="M150.5-112.5c4.8,0,8.8,3.9,8.8,8.8c0,4.8-3.9,8.8-8.8,8.8s-8.8-3.9-8.8-8.8
			C141.7-108.6,145.7-112.5,150.5-112.5 M150.5-116.9c-7.3,0-13.1,5.9-13.1,13.1c0,7.3,5.9,13.1,13.1,13.1s13.1-5.9,13.1-13.1
			C163.6-111,157.8-116.9,150.5-116.9L150.5-116.9z"/>
	</g>
	<g class="st17">
		<path class="st20" d="M188.3-2.7c-6,0-11-4.9-11-11s4.9-11,11-11s11,4.9,11,11S194.3-2.7,188.3-2.7z"/>
		<path class="st19" d="M188.3-22.5c4.8,0,8.8,3.9,8.8,8.8c0,4.8-3.9,8.8-8.8,8.8s-8.8-3.9-8.8-8.8
			C179.5-18.5,183.4-22.5,188.3-22.5 M188.3-26.9c-7.3,0-13.1,5.9-13.1,13.1c0,7.3,5.9,13.1,13.1,13.1s13.1-5.9,13.1-13.1
			C201.4-21,195.5-26.9,188.3-26.9L188.3-26.9z"/>
	</g>
</g>
<text transform="matrix(1 0 0 1 49.8447 201.2556)" class="st5 st21 st22 st23">SOLUTIONS</text>
<g>
	<path class="st24" d="M51.6,197.8l1.7-2c2.5,2.2,4.9,3.4,8.2,3.4c3.2,0,5.3-1.7,5.3-4v-0.1c0-2.2-1.2-3.5-6.2-4.5
		c-5.5-1.2-8-3-8-6.9v-0.1c0-3.7,3.3-6.5,7.8-6.5c3.5,0,5.9,1,8.4,2.9l-1.6,2.1c-2.2-1.8-4.4-2.6-6.9-2.6c-3.1,0-5.1,1.7-5.1,3.8
		v0.1c0,2.2,1.2,3.5,6.5,4.6c5.3,1.2,7.8,3.1,7.8,6.7v0.1c0,4.1-3.4,6.7-8.1,6.7C57.6,201.6,54.5,200.3,51.6,197.8z"/>
	<path class="st24" d="M75.3,189.4L75.3,189.4c0-6.6,4.9-12.4,12.2-12.4s12.1,5.7,12.1,12.2v0.1c0,6.6-4.9,12.3-12.2,12.3
		S75.3,196,75.3,189.4z M96.8,189.4L96.8,189.4c0-5.5-3.9-9.9-9.4-9.9s-9.3,4.4-9.3,9.8v0.1c0,5.4,3.9,9.8,9.4,9.8
		S96.8,194.8,96.8,189.4z"/>
	<path class="st24" d="M106.6,177.5h2.7v21.3h13.4v2.5h-16.1V177.5z"/>
	<path class="st24" d="M127.9,191.3v-13.8h2.7v13.7c0,5.1,2.7,8,7.3,8c4.4,0,7.2-2.7,7.2-7.9v-13.8h2.7v13.6c0,6.9-4,10.5-9.9,10.5
		C132,201.6,127.9,198,127.9,191.3z"/>
	<path class="st24" d="M161.8,179.9h-8v-2.5h18.7v2.5h-8v21.3h-2.7V179.9z"/>
	<path class="st24" d="M179.1,177.5h2.7v23.8h-2.7V177.5z"/>
	<path class="st24" d="M189.1,189.4L189.1,189.4c0-6.6,4.9-12.4,12.2-12.4c7.2,0,12.1,5.7,12.1,12.2v0.1c0,6.6-4.9,12.3-12.2,12.3
		S189.1,196,189.1,189.4z M210.6,189.4L210.6,189.4c0-5.5-3.9-9.9-9.4-9.9s-9.3,4.4-9.3,9.8v0.1c0,5.4,3.9,9.8,9.4,9.8
		C206.7,199.2,210.6,194.8,210.6,189.4z"/>
	<path class="st24" d="M220.4,177.5h2.5l15,19.1v-19.1h2.6v23.8h-2.1L223,181.7v19.5h-2.6V177.5z"/>
	<path class="st24" d="M247,197.8l1.7-2c2.5,2.2,4.9,3.4,8.2,3.4c3.2,0,5.3-1.7,5.3-4v-0.1c0-2.2-1.2-3.5-6.2-4.5
		c-5.5-1.2-8-3-8-6.9v-0.1c0-3.7,3.3-6.5,7.8-6.5c3.5,0,5.9,1,8.4,2.9l-1.6,2.1c-2.2-1.8-4.4-2.6-6.9-2.6c-3.1,0-5.1,1.7-5.1,3.8
		v0.1c0,2.2,1.2,3.5,6.5,4.6c5.3,1.2,7.8,3.1,7.8,6.7v0.1c0,4.1-3.4,6.7-8.1,6.7C253,201.6,249.9,200.3,247,197.8z"/>
</g>
</svg>
